<?xml version="1.0" standalone="no"?>
<!DOCTYPE svg PUBLIC "-//W3C//DTD SVG 20010904//EN"
 "http://www.w3.org/TR/2001/REC-SVG-20010904/DTD/svg10.dtd">
<svg version="1.0" xmlns="http://www.w3.org/2000/svg"
 width="300.000000pt" height="285.000000pt" viewBox="0 0 300.000000 285.000000"
 preserveAspectRatio="xMidYMid meet">
<metadata>
Created by potrace 1.10, written by Peter Selinger 2001-2011
</metadata>
<g transform="translate(0.000000,285.000000) scale(0.100000,-0.100000)"
fill="#000000" stroke="none">
<path d="M1408 2829 c-10 -5 -18 -15 -18 -20 0 -6 4 -7 10 -4 6 4 7 -6 3 -27
-11 -51 -9 -91 5 -95 8 -3 12 7 12 34 0 55 10 83 26 76 15 -6 18 6 8 31 -7 18
-21 20 -46 5z"/>
<path d="M1286 2788 c-8 -33 -7 -45 3 -29 7 10 14 2 29 -33 12 -25 26 -46 31
-46 15 0 14 5 -9 50 -24 47 -24 51 -5 44 22 -9 18 14 -4 26 -29 15 -38 12 -45
-12z"/>
<path d="M1495 2771 c-3 -6 -1 -11 5 -11 7 0 -2 -13 -19 -29 -17 -16 -31 -37
-31 -47 0 -14 9 -9 40 21 22 21 40 34 40 27 0 -7 5 -12 11 -12 6 0 9 12 7 28
-2 19 -9 28 -25 30 -11 2 -24 -2 -28 -7z"/>
<path d="M1361 2651 c-12 -8 -13 -18 -3 -62 9 -38 9 -55 1 -65 -6 -7 -7 -19
-3 -26 10 -15 9 -21 -11 -133 -8 -44 -17 -142 -19 -217 -3 -76 -9 -146 -15
-156 -5 -10 -12 -116 -15 -237 -4 -120 -10 -221 -15 -225 -4 -3 -11 -47 -15
-99 -3 -52 -11 -98 -17 -101 -6 -4 -4 -11 6 -20 13 -11 15 -10 10 2 -8 20 28
29 78 21 30 -4 35 -8 26 -19 -6 -8 -29 -14 -50 -14 -25 0 -44 -7 -57 -20 -18
-19 -18 -19 -78 5 -33 13 -87 31 -120 40 -61 16 -89 39 -78 65 17 41 16 50 -5
50 -23 0 -46 42 -37 66 3 8 -1 17 -9 21 -7 5 -37 62 -65 128 -29 65 -58 128
-66 140 -7 11 -34 72 -59 135 -48 120 -65 149 -65 113 0 -27 10 -54 19 -49 3
2 6 -6 7 -17 1 -12 14 -56 29 -97 16 -41 32 -95 36 -120 4 -25 19 -90 34 -144
14 -55 24 -108 21 -119 -2 -10 2 -21 9 -23 23 -9 29 -56 9 -71 -14 -11 -15
-15 -5 -26 10 -10 12 -9 9 3 -2 10 14 20 51 33 64 21 96 16 81 -14 -11 -20
-40 -27 -40 -9 0 6 -4 10 -10 10 -5 0 -10 -6 -10 -14 0 -10 -25 -20 -77 -32
-43 -9 -105 -30 -138 -47 -127 -66 -297 -287 -252 -328 14 -13 10 -60 -7 -88
-4 -7 0 -11 12 -11 10 0 21 -2 24 -5 2 -3 0 -40 -7 -82 -6 -46 -7 -97 -3 -123
6 -31 3 -67 -7 -114 -9 -38 -13 -71 -10 -74 3 -3 5 3 5 14 0 12 3 15 8 7 4 -7
8 4 8 25 0 55 12 92 30 92 10 0 14 -6 10 -17 -3 -10 -13 -48 -22 -85 -10 -43
-22 -68 -30 -68 -8 0 -14 6 -15 13 -1 29 -23 -50 -55 -197 -18 -87 -36 -161
-38 -164 -3 -3 -16 -10 -28 -16 -38 -19 -34 -44 7 -62 49 -20 99 -15 104 10 2
11 -5 25 -14 32 -12 9 -16 22 -12 41 33 185 106 480 141 567 14 33 28 89 32
124 5 49 10 62 23 60 12 -2 17 9 22 56 4 39 12 62 23 68 9 5 16 16 16 23 0 28
36 53 79 53 22 0 45 3 51 7 25 15 104 -54 137 -120 75 -149 183 -314 253 -388
65 -69 88 -85 176 -128 133 -64 209 -80 329 -69 50 5 114 14 141 20 76 17 183
74 246 129 38 35 62 49 73 45 22 -9 95 62 95 93 0 13 4 23 9 23 4 0 16 21 25
48 10 26 21 54 25 62 16 30 32 157 28 220 -7 103 -16 130 -42 130 -13 0 -27
10 -34 24 -7 13 -24 30 -37 37 -13 7 -24 16 -24 19 0 4 29 54 65 111 36 57 71
119 77 137 7 17 16 32 20 32 4 0 8 7 8 15 0 7 6 18 13 22 18 12 56 66 121 176
32 53 62 97 66 97 4 0 10 13 13 29 4 21 13 30 29 33 14 2 26 13 33 32 8 25 6
31 -18 52 -16 13 -36 24 -46 24 -20 0 -41 -39 -41 -75 0 -18 -5 -25 -20 -25
-13 0 -20 -7 -20 -18 0 -10 -32 -55 -70 -101 -39 -46 -78 -97 -87 -114 -9 -18
-19 -34 -22 -37 -3 -3 -13 -18 -21 -35 -16 -32 -192 -268 -221 -297 -13 -13
-34 -18 -71 -18 -29 0 -91 -9 -138 -19 -47 -11 -88 -16 -92 -13 -3 4 4 32 17
63 13 31 26 67 29 80 2 13 30 96 61 184 31 88 73 207 93 265 19 58 39 107 44
108 4 2 8 13 8 25 0 12 9 28 20 35 27 17 25 48 -5 68 -39 25 -60 15 -61 -31 0
-21 -6 -41 -12 -43 -7 -2 -12 -12 -12 -21 0 -10 -18 -51 -40 -91 -22 -40 -51
-107 -64 -149 -24 -76 -120 -291 -135 -301 -4 -3 -13 -21 -20 -40 -27 -71 -41
-98 -56 -104 -10 -4 -13 -14 -9 -35 9 -43 -20 -55 -115 -47 -124 11 -148 20
-155 60 -6 33 0 66 13 66 3 0 7 100 9 223 2 122 8 247 14 277 6 30 12 120 14
200 5 277 16 475 27 482 15 9 -11 38 -35 38 -27 0 -35 30 -13 46 16 12 16 14
3 14 -9 0 -19 -6 -21 -12 -3 -8 -6 -5 -6 5 -1 15 6 18 36 15 20 -2 39 -9 41
-17 3 -10 0 -12 -12 -8 -12 5 -16 1 -16 -15 0 -20 1 -21 20 -3 27 24 27 81 1
95 -24 12 -61 13 -80 1z m55 -146 c-11 -8 -14 -15 -8 -15 8 0 12 -27 12 -90
l0 -89 -32 6 c-18 3 -34 7 -35 8 -2 1 4 39 12 85 8 45 12 87 8 93 -3 6 -1 7 5
3 7 -4 20 -2 29 3 26 15 31 13 9 -4z m-13 -205 c18 0 22 -24 11 -79 -6 -27
-10 -31 -40 -31 l-34 0 0 61 c0 59 1 61 23 55 12 -3 30 -6 40 -6z m3 -131 c10
-17 -8 -28 -38 -22 -38 7 -36 33 1 33 17 0 33 -5 37 -11z m-6 -120 c0 -52 -2
-60 -16 -55 -9 3 -24 6 -35 6 -21 0 -24 22 -13 79 6 26 11 31 35 31 29 0 29 0
29 -61z m626 -18 c-3 -5 1 -11 9 -15 8 -3 15 -13 15 -21 0 -15 -1 -15 -16 -1
-8 9 -22 16 -30 16 -20 0 -17 18 4 23 9 3 18 5 20 6 2 0 1 -3 -2 -8z m-619
-55 c1 -1 -1 -27 -4 -59 l-6 -57 -43 0 c-49 0 -49 0 -38 84 l7 47 41 -7 c23
-3 42 -7 43 -8z m1209 -39 c5 -1 9 -8 10 -15 1 -6 -2 -9 -7 -6 -6 3 -7 -6 -3
-23 l6 -28 -16 23 c-10 12 -26 22 -37 22 -10 0 -19 5 -19 11 0 7 11 9 30 5 19
-3 29 -2 25 4 -3 6 -16 10 -28 11 -21 0 -21 1 -2 8 11 5 23 4 26 -1 3 -5 10
-10 15 -11z m-611 1 c-47 -151 -45 -148 -71 -136 -13 6 -23 14 -22 17 29 58
63 118 72 123 17 11 26 9 21 -4z m582 -54 c8 -21 -13 -42 -28 -27 -13 13 -5
43 11 43 6 0 13 -7 17 -16z m-1201 -70 c1 -27 -2 -30 -32 -32 -18 -2 -35 2
-38 7 -3 5 3 7 13 4 11 -3 28 0 38 6 15 9 12 10 -19 11 -25 0 -38 5 -38 13 0
22 12 28 45 25 26 -3 30 -7 31 -34z m1168 4 c-11 -35 -86 -148 -98 -148 -21 1
-48 28 -40 42 26 44 117 136 130 131 9 -3 12 -12 8 -25z m-620 -29 c24 -12 25
-13 10 -47 -19 -46 -17 -44 -48 -36 -28 7 -28 10 -5 72 10 26 10 26 43 11z
m-1125 -23 c9 -11 8 -15 -5 -20 -23 -9 -24 -8 -24 14 0 23 13 26 29 6z m571
-55 c0 -32 -3 -86 -6 -120 l-7 -61 -33 0 c-33 0 -34 2 -34 38 0 20 3 74 7 120
l6 82 33 0 34 0 0 -59z m-520 -66 c24 -52 41 -97 39 -98 -2 -2 -16 -8 -30 -14
l-27 -12 -25 102 c-24 96 -26 117 -8 117 5 0 27 -43 51 -95z m1034 49 c15 -6
23 -34 10 -34 -13 0 -44 21 -44 30 0 11 11 13 34 4z m537 -25 l29 -20 -32 -45
c-17 -24 -33 -44 -34 -44 -2 0 -17 8 -33 18 l-30 18 30 47 c16 26 32 47 35 47
3 0 19 -9 35 -21z m-551 -29 c18 -9 17 -16 -22 -132 -22 -68 -42 -124 -43
-126 -1 -2 -18 5 -38 14 l-35 17 45 96 c25 53 49 106 54 119 10 25 13 26 39
12z m481 -79 c19 -16 21 -21 11 -34 -12 -14 -16 -13 -36 6 -12 12 -20 28 -18
35 6 17 16 15 43 -7z m-40 -51 c10 -6 19 -18 19 -27 0 -18 -148 -263 -158
-263 -4 0 -24 12 -45 26 l-38 25 29 37 c16 20 59 76 96 125 37 48 70 87 72 87
3 0 14 -5 25 -10z m-1393 -18 c4 -12 -4 -17 -38 -25 -19 -5 -29 -1 -38 13 -10
16 -9 18 5 13 10 -4 14 -2 10 4 -4 7 5 10 25 8 18 -1 34 -7 36 -13z m425 8
c20 0 27 -5 27 -20 0 -22 -15 -25 -69 -14 -22 5 -31 12 -31 26 0 16 5 19 23
14 12 -3 34 -6 50 -6z m-413 -55 c0 -8 -9 -15 -19 -15 -11 0 -26 -3 -35 -6
-10 -4 -16 -1 -16 9 0 17 14 25 48 26 13 1 22 -5 22 -14z m430 -48 l0 -53 -51
0 c-45 1 -49 3 -45 21 3 11 6 35 6 53 0 31 1 32 45 32 l45 0 0 -53z m437 -57
c-3 -17 -37 -18 -80 -1 -24 9 -26 14 -17 30 10 19 12 19 55 3 31 -11 45 -22
42 -32z m-754 -44 c21 -9 44 -16 51 -16 16 0 29 -27 20 -41 -3 -5 0 -9 5 -9 6
0 11 9 11 20 0 24 -1 24 43 5 20 -8 42 -12 50 -9 16 6 123 -32 132 -47 9 -13
-5 -50 -16 -44 -11 8 -31 -43 -23 -57 4 -7 2 -8 -4 -4 -7 4 -12 3 -12 -2 0 -6
6 -12 14 -15 16 -6 31 37 20 55 -4 6 -3 8 3 5 5 -4 16 5 23 18 26 48 30 24 4
-26 -14 -28 -24 -52 -22 -54 7 -6 151 -36 155 -32 2 3 -28 13 -67 23 -76 19
-79 26 -44 82 12 18 20 21 41 16 58 -15 177 -10 204 9 33 22 89 14 89 -14 0
-18 1 -18 19 0 11 11 36 23 56 27 19 3 38 10 41 15 3 5 9 7 14 4 5 -3 29 -1
55 5 25 6 57 7 71 4 l24 -6 -26 -27 c-36 -35 -63 -81 -58 -96 5 -11 -44 -55
-59 -55 -3 0 -8 19 -10 43 l-4 42 -1 -47 c-2 -56 13 -62 59 -24 l29 25 40 -36
c37 -33 38 -37 25 -57 -8 -11 -15 -25 -15 -30 0 -6 7 -1 15 11 8 12 28 23 43
25 21 2 36 17 68 68 23 36 52 78 64 93 l23 29 36 -36 c35 -36 36 -38 40 -127
3 -99 -10 -168 -39 -194 -10 -9 -16 -23 -13 -31 3 -8 0 -14 -7 -14 -6 0 -9 -8
-6 -17 3 -10 1 -25 -4 -33 -9 -13 -11 -13 -19 0 -7 10 -6 17 2 22 9 5 9 10 0
19 -18 18 -26 -11 -13 -45 15 -40 12 -55 -6 -26 -10 17 -13 18 -9 5 4 -11 9
-27 12 -36 5 -17 -98 -118 -175 -171 -124 -85 -320 -124 -465 -91 -62 14 -212
79 -247 107 -38 31 -170 169 -170 178 0 6 -16 36 -35 68 -19 32 -35 71 -35 86
0 16 -5 36 -11 44 -8 11 -9 8 -4 -15 5 -23 4 -27 -6 -18 -7 7 -11 41 -11 87 0
53 -4 78 -14 87 -18 15 -20 -11 -1 -30 10 -12 9 -13 -7 -7 -17 6 -17 4 -5 -10
11 -14 22 -84 13 -84 -2 0 -17 28 -34 63 -30 61 -103 142 -120 132 -14 -9 -41
7 -50 29 l-9 21 0 -22 c-1 -27 -30 -34 -55 -14 -18 15 -19 15 -13 -1 8 -22
-23 -29 -45 -10 -11 9 -18 11 -18 4 0 -6 5 -14 10 -17 17 -10 1 -25 -28 -25
-23 0 -24 -1 -9 -12 14 -11 14 -16 2 -31 -11 -15 -17 -16 -34 -7 -12 6 -21 7
-21 3 0 -4 -20 -9 -44 -10 -32 -1 -46 2 -50 13 -6 17 23 76 34 69 4 -3 12 7
18 20 7 14 16 25 22 25 6 0 8 11 4 28 l-6 27 17 -24 c17 -22 17 -24 2 -33 -9
-5 -22 -19 -28 -31 -12 -22 -12 -22 10 -3 11 11 21 14 21 8 0 -6 -10 -18 -22
-26 -12 -9 -18 -16 -12 -16 6 0 21 11 34 25 22 24 24 24 44 8 12 -10 15 -11 9
-3 -15 17 -17 34 -3 25 6 -3 10 0 10 7 0 8 28 30 62 50 l63 37 13 -22 c9 -15
12 -16 8 -4 -3 10 -6 25 -6 32 0 9 -20 2 -62 -21 -35 -20 -69 -40 -76 -46 -7
-6 -15 -8 -18 -5 -4 3 21 23 54 44 34 21 69 43 79 49 10 7 15 15 12 18 -4 4
-40 -16 -80 -43 -41 -27 -76 -47 -78 -45 -6 5 -7 4 63 53 33 22 55 41 50 41
-5 0 -33 -16 -62 -36 -30 -20 -56 -34 -58 -31 -8 8 105 99 115 93 5 -3 12 2
15 11 5 12 10 13 18 5 8 -8 8 -15 -2 -27 -11 -13 -10 -14 4 -9 10 4 16 18 16
36 0 24 3 29 17 24 9 -4 20 -1 25 6 5 9 8 5 8 -11 0 -18 -4 -22 -20 -18 -13 3
-20 0 -20 -10 0 -11 5 -13 18 -8 9 4 35 14 57 22 54 20 58 27 10 18 -58 -10
-33 8 28 21 43 8 58 7 87 -7 19 -9 52 -24 73 -33z m714 13 c19 -7 20 -11 11
-43 -10 -33 -12 -34 -32 -20 -11 7 -33 14 -48 14 -33 0 -33 1 -12 41 16 31 19
31 81 8z m-432 -59 c17 -19 17 -19 -16 -10 -19 6 -35 10 -36 10 -2 0 -3 5 -3
10 0 17 36 11 55 -10z m422 -26 c24 -24 1 -41 -28 -20 -13 9 -35 16 -50 16
-27 0 -48 25 -26 33 20 6 88 -12 104 -29z m357 12 c-8 -20 36 -49 53 -34 7 6
13 7 13 4 0 -12 -30 -66 -37 -66 -3 0 -26 16 -50 36 -36 29 -42 39 -32 50 7 8
18 13 25 10 8 -3 13 -2 13 2 -3 16 2 23 11 17 5 -3 7 -12 4 -19z m15 -108 c1
-10 -52 -87 -60 -88 -3 0 -12 11 -19 25 -7 13 -21 27 -31 30 -39 13 -41 32 -9
69 l31 35 44 -32 c24 -18 44 -35 44 -39z m-1521 -19 c-21 -14 -32 -10 -19 5 9
11 9 20 2 35 -6 11 -11 26 -11 33 0 7 9 -5 21 -26 17 -31 18 -40 7 -47z m1388
-10 c34 -21 74 -68 74 -88 0 -6 -9 -11 -21 -11 -12 0 -19 5 -17 12 3 7 -6 21
-19 31 -13 10 -21 22 -19 26 3 4 -5 7 -17 7 -15 -1 -23 6 -25 22 -4 27 2 27
44 1z m319 -11 c13 -55 15 -160 4 -218 -10 -54 -13 -63 -39 -125 -8 -16 -15
-36 -16 -44 -1 -7 -7 -18 -13 -24 -6 -6 -11 -18 -11 -26 0 -20 -69 -93 -80
-86 -5 3 8 29 29 56 25 33 52 89 76 159 32 95 37 119 36 199 0 51 -4 103 -7
116 -3 14 -2 25 4 25 5 0 13 -15 17 -32z m-1747 -143 c-3 -14 -1 -28 3 -31 5
-3 9 6 9 20 0 16 6 26 14 26 19 0 33 -23 18 -28 -7 -2 -9 -15 -5 -34 6 -30 5
-31 -23 -23 -16 4 -47 9 -69 10 -56 4 -55 4 -51 18 3 6 7 24 10 38 5 23 11 26
52 27 45 2 46 1 42 -23z m6 -115 c0 -19 -4 -52 -8 -74 -7 -38 -8 -38 -43 -33
-19 4 -37 8 -40 10 -2 3 1 35 8 71 l11 67 37 -3 c34 -3 36 -5 35 -38z m-24
-130 c0 -23 -24 -70 -36 -70 -17 0 -34 31 -34 62 0 21 4 24 35 20 19 -2 35 -8
35 -12z m-84 -289 c-3 -9 -10 -42 -17 -73 -7 -36 -17 -58 -26 -58 -7 0 -13 9
-13 20 0 11 7 20 15 20 16 0 21 16 6 22 -6 2 -5 22 1 50 8 33 15 45 25 41 7
-3 12 -13 9 -22z m-38 -168 c-5 -25 -28 -28 -28 -4 0 12 6 21 16 21 9 0 14 -7
12 -17z m-12 -62 c-2 -9 -7 -31 -11 -48 -4 -20 -13 -33 -22 -33 -10 0 -13 6
-9 16 3 9 9 33 12 54 5 28 10 37 20 33 8 -3 13 -13 10 -22z m-32 -97 c22 -9
20 -24 -3 -24 -21 0 -34 13 -24 24 8 7 8 7 27 0z m-41 -16 c2 -8 20 -13 42
-13 22 0 40 -6 43 -13 2 -8 -7 -12 -27 -12 -42 0 -81 17 -81 35 0 18 17 20 23
3z"/>
<path d="M843 1279 c-35 -11 -63 -24 -63 -29 0 -6 5 -10 11 -10 5 0 7 -5 4
-10 -7 -11 14 -79 29 -95 5 -6 6 -3 1 10 -4 11 -10 41 -12 66 l-5 47 51 13
c28 7 51 16 51 21 0 4 -1 8 -2 7 -2 0 -31 -9 -65 -20z"/>
<path d="M873 1259 c-29 -11 -53 -23 -53 -27 0 -4 7 -29 15 -57 l15 -50 -6 45
c-4 25 -7 49 -8 54 0 6 17 16 39 24 22 7 44 17 50 23 12 12 9 11 -52 -12z"/>
<path d="M1084 1245 c-9 -14 -13 -32 -9 -45 4 -12 2 -20 -5 -20 -6 0 -8 -4 -5
-10 3 -5 1 -10 -4 -10 -19 0 -12 -17 9 -23 17 -4 19 -9 11 -29 -4 -12 -11 -43
-15 -68 l-6 -45 60 -32 c75 -41 79 -34 5 8 -44 25 -54 35 -50 50 4 11 8 31 10
47 2 15 4 29 5 32 2 3 2 8 1 13 -2 12 15 8 80 -22 80 -36 123 -47 117 -29 -3
7 -18 14 -34 16 -16 2 -33 8 -38 13 -6 5 -15 9 -22 9 -6 0 -37 11 -67 25 l-56
24 15 37 c10 25 11 33 3 28 -9 -5 -10 -2 -6 10 4 10 7 21 7 24 0 4 5 0 10 -8
8 -12 10 -11 10 8 0 28 -6 28 -26 -3z"/>
<path d="M1019 1167 c7 -10 9 -17 3 -17 -5 0 -8 -8 -5 -19 2 -10 0 -35 -5 -55
-6 -20 -7 -38 -2 -41 4 -2 11 19 15 48 12 78 11 90 -5 95 -13 5 -13 3 -1 -11z"/>
<path d="M1306 1148 c-9 -17 -16 -41 -16 -52 1 -15 5 -11 14 14 7 19 17 43 21
53 13 30 -3 18 -19 -15z"/>
<path d="M1157 1130 c23 -11 57 -23 75 -26 24 -4 17 1 -22 16 -74 29 -105 35
-53 10z"/>
<path d="M1054 1121 c4 -5 2 -11 -4 -13 -5 -1 -12 -50 -15 -108 -4 -58 -4
-102 0 -99 3 4 8 35 10 70 5 62 11 106 21 142 3 9 0 17 -6 17 -6 0 -9 -4 -6
-9z"/>
<path d="M1587 1115 c-4 -11 -11 -29 -16 -41 -7 -15 -6 -21 5 -21 14 0 18 9
15 37 -2 12 0 12 7 2 7 -11 10 -10 16 3 8 23 8 27 -3 21 -5 -4 -11 -1 -13 6
-3 7 -7 4 -11 -7z"/>
<path d="M1810 1061 c0 -28 5 -51 10 -51 6 0 10 20 10 44 0 25 -4 48 -10 51
-6 4 -10 -13 -10 -44z"/>
<path d="M1110 1088 c0 -6 3 -8 7 -5 3 4 12 2 19 -4 16 -13 114 -49 134 -48 8
0 -16 12 -55 26 -38 14 -74 29 -79 34 -14 13 -26 11 -26 -3z"/>
<path d="M1340 1052 c0 -10 152 -54 159 -46 11 10 -17 23 -82 38 -80 19 -77
18 -77 8z"/>
<path d="M1290 985 c0 -30 -4 -55 -10 -55 -5 0 -10 -11 -10 -25 0 -14 5 -25
11 -25 6 0 9 6 6 14 -3 8 -1 16 4 18 6 2 11 26 12 55 1 28 5 49 10 46 4 -2 7
0 7 5 0 6 -7 12 -15 16 -12 4 -15 -5 -15 -49z"/>
<path d="M1594 1028 c-3 -4 30 -8 73 -7 89 1 87 6 -5 11 -35 2 -65 1 -68 -4z"/>
<path d="M1318 951 l-15 -76 50 -22 c27 -13 67 -28 88 -35 22 -6 39 -15 39
-19 0 -8 -124 32 -162 53 -13 6 -18 5 -18 -4 0 -12 37 -28 148 -63 l42 -13 0
41 c0 23 6 70 14 105 7 34 9 62 5 62 -4 0 -13 -35 -21 -77 -13 -74 -15 -78
-39 -75 -13 2 -28 7 -34 11 -5 4 -29 13 -52 21 -31 9 -43 19 -43 32 0 17 20
109 25 116 1 1 33 -5 70 -13 37 -9 69 -14 72 -12 3 4 -40 17 -123 37 l-31 7
-15 -76z"/>
<path d="M1576 994 c-6 -14 1 -16 49 -12 30 3 55 1 55 -4 0 -13 65 -9 79 5 11
10 14 10 18 0 7 -18 23 -16 23 3 0 14 -14 15 -99 12 -55 -1 -97 0 -94 5 2 4
-2 7 -10 7 -8 0 -18 -7 -21 -16z"/>
<path d="M1867 999 c-16 -4 -35 -5 -43 -2 -8 3 -14 -1 -14 -9 0 -12 9 -13 45
-8 25 4 48 9 51 12 11 11 -11 15 -39 7z"/>
<path d="M1060 968 c0 -14 66 -54 143 -87 26 -11 47 -16 47 -12 0 11 -75 51
-95 51 -8 0 -15 4 -15 8 0 5 -18 18 -40 31 -28 16 -40 18 -40 9z"/>
<path d="M1522 923 c-23 -118 -23 -123 -5 -123 9 0 14 2 11 5 -6 6 15 127 27
158 5 11 2 17 -8 17 -10 0 -18 -19 -25 -57z"/>
<path d="M1561 933 c-5 -21 -12 -61 -16 -88 l-6 -50 69 -18 c38 -10 102 -21
142 -24 l73 -6 -7 24 c-3 13 -9 61 -13 107 l-6 82 -91 -1 c-83 -1 -87 -2 -46
-11 25 -5 64 -7 88 -4 l42 6 0 -63 c0 -34 4 -77 10 -96 l9 -34 -72 7 c-67 7
-109 16 -165 38 -17 6 -22 13 -17 26 3 9 9 40 12 67 3 28 10 56 16 63 6 8 6
12 -1 12 -6 0 -16 -17 -21 -37z"/>
<path d="M1853 893 c8 -96 17 -143 28 -143 5 0 5 10 0 23 -4 12 -11 59 -15
104 l-7 82 33 4 c32 4 32 4 -6 5 l-39 2 6 -77z"/>
<path d="M1251 941 c-1 -21 -4 -23 -33 -18 l-33 6 35 -18 c34 -19 35 -19 38 0
2 11 1 27 -1 37 -3 12 -5 10 -6 -7z"/>
<path d="M1810 943 c0 -60 24 -193 35 -193 10 0 11 10 5 38 -5 20 -10 67 -12
104 -2 46 -7 68 -15 68 -7 0 -13 -8 -13 -17z"/>
<path d="M1062 871 c2 -63 2 -64 5 -13 2 28 8 52 13 52 5 0 33 -13 63 -30 30
-16 63 -30 72 -30 14 0 16 -11 12 -80 -2 -45 0 -83 5 -86 4 -3 8 26 8 65 0 38
2 75 5 83 3 8 -28 29 -90 59 l-95 46 2 -66z"/>
<path d="M2135 870 c7 -23 7 -24 -10 -10 -17 14 -17 14 -1 -17 10 -21 21 -30
31 -27 13 5 12 10 -2 37 -21 42 -27 48 -18 17z"/>
<path d="M2095 860 c4 -14 9 -35 12 -47 3 -13 10 -23 15 -23 5 0 6 -4 3 -10
-3 -5 0 -10 7 -10 7 -1 3 -9 -11 -20 -13 -11 -19 -20 -14 -20 5 0 18 8 29 18
10 10 27 23 36 28 11 6 14 14 9 22 -11 18 -41 4 -35 -16 2 -9 -10 10 -27 43
-17 33 -28 49 -24 35z"/>
<path d="M2197 844 c-16 -21 -16 -27 -4 -50 9 -17 17 -23 21 -15 4 6 2 11 -5
11 -10 0 -10 3 -1 12 18 18 15 28 -5 21 -16 -6 -16 -4 1 15 11 12 17 24 15 26
-2 2 -12 -7 -22 -20z"/>
<path d="M1256 808 c-11 -55 -7 -138 7 -138 8 0 12 21 11 73 -1 39 3 75 8 78
5 3 3 9 -5 12 -10 4 -17 -4 -21 -25z"/>
<path d="M1296 804 c-3 -8 -6 -44 -6 -79 l0 -63 69 -21 c79 -24 91 -25 91 -10
0 5 -4 7 -10 4 -5 -3 -31 1 -57 11 -27 9 -55 17 -63 18 -11 2 -16 20 -18 69
-2 37 1 67 5 67 4 0 30 -7 57 -15 69 -21 81 -18 21 6 -78 30 -82 31 -89 13z"/>
<path d="M1540 767 c0 -14 106 -43 198 -54 44 -5 52 -3 52 11 0 13 -11 16 -52
16 -29 0 -77 7 -106 14 -30 8 -61 12 -70 9 -10 -4 -13 -2 -8 5 4 7 2 12 -3 12
-6 0 -11 -6 -11 -13z"/>
<path d="M1472 686 c-1 -43 2 -77 8 -81 6 -4 10 22 10 74 0 102 -14 107 -18 7z"/>
<path d="M1925 750 c17 -4 44 -8 60 -9 23 0 26 2 15 9 -8 5 -35 9 -60 9 -41
-1 -42 -2 -15 -9z"/>
<path d="M1502 675 c2 -56 7 -75 17 -75 11 0 12 10 7 46 -3 26 -6 60 -6 75 0
16 -5 29 -11 29 -7 0 -9 -26 -7 -75z"/>
<path d="M1540 666 l0 -73 61 -7 c85 -8 269 -8 269 2 0 4 -37 7 -82 6 -46 0
-117 2 -158 5 l-75 6 -3 63 c-2 60 3 72 24 54 20 -19 264 -57 264 -41 0 3 -32
10 -71 13 -39 4 -105 16 -147 27 -41 10 -77 19 -79 19 -1 0 -3 -33 -3 -74z"/>
<path d="M1840 721 c0 -12 6 -21 16 -21 9 0 14 7 12 17 -5 25 -28 28 -28 4z"/>
<path d="M1880 723 c0 -22 4 -23 73 -22 39 1 63 4 53 6 -15 4 -16 7 -5 14 9 6
-6 8 -41 8 -42 -1 -49 -3 -30 -9 l25 -8 -24 -1 c-13 -1 -30 7 -37 17 -12 16
-13 15 -14 -5z"/>
<path d="M2030 690 c0 -10 -13 -11 -55 -6 -35 4 -55 2 -55 -4 0 -13 107 -13
115 1 4 6 4 13 1 16 -3 4 -6 0 -6 -7z"/>
<path d="M1250 652 c0 -6 6 -13 13 -15 6 -3 7 -6 2 -6 -6 -1 -9 -20 -8 -43 l3
-43 -11 34 c-12 40 -22 37 -10 -5 4 -16 15 -30 24 -32 15 -3 17 4 14 54 -1 34
-8 59 -15 62 -7 2 -12 -1 -12 -6z"/>
<path d="M1867 640 c3 -11 9 -18 13 -15 5 3 12 0 16 -6 3 -6 0 -15 -7 -20 -17
-10 -7 -21 14 -13 14 5 14 9 0 40 -18 37 -45 47 -36 14z"/>
<path d="M1290 634 c0 -13 25 -19 58 -15 6 1 12 -2 12 -8 0 -11 98 -36 107
-27 9 9 1 14 -32 17 -16 2 -32 6 -35 9 -3 3 -29 13 -57 22 -45 14 -53 14 -53
2z"/>
<path d="M1313 593 c4 -3 46 -16 95 -28 56 -15 87 -27 87 -36 1 -26 28 -110
37 -116 6 -3 7 4 2 18 -4 13 -13 46 -19 73 l-11 48 -94 24 c-105 27 -106 27
-97 17z"/>
<path d="M1979 586 c-2 -2 -22 -6 -44 -10 -22 -3 -41 -5 -42 -6 -2 0 -3 -5 -3
-11 0 -5 4 -8 9 -5 5 3 26 8 47 12 41 6 51 11 42 19 -2 3 -7 3 -9 1z"/>
<path d="M1550 572 c0 -5 21 -12 46 -16 65 -9 284 -8 284 2 0 4 -62 7 -138 8
-75 0 -149 3 -164 7 -16 4 -28 3 -28 -1z"/>
<path d="M1963 552 c-8 -5 -8 -14 3 -32 l15 -25 -5 27 c-5 22 -2 27 16 31 20
4 20 4 3 5 -11 1 -25 -2 -32 -6z"/>
<path d="M1523 533 c3 -10 10 -39 17 -65 7 -26 18 -49 25 -51 8 -4 5 16 -9 64
-12 38 -25 69 -29 69 -5 0 -6 -8 -4 -17z"/>
<path d="M1556 527 c4 -12 15 -44 25 -72 l18 -50 -6 45 c-3 25 -9 49 -14 55
-19 20 -4 23 119 20 l127 -4 -120 9 c-66 5 -128 11 -138 14 -14 3 -17 0 -11
-17z"/>
<path d="M1190 2390 c0 -25 25 -37 44 -21 16 13 32 -2 21 -19 -3 -5 -1 -10 4
-10 15 0 14 57 -1 63 -7 2 -22 -3 -32 -12 -18 -15 -19 -15 -13 2 4 11 1 17 -8
17 -8 0 -15 -9 -15 -20z"/>
<path d="M1204 2316 c-7 -19 13 -56 31 -56 8 0 15 5 15 10 0 6 5 10 10 10 16
0 12 -22 -7 -36 -10 -7 -28 -14 -40 -14 -29 0 -30 -23 -3 -57 11 -14 20 -30
20 -35 0 -5 -9 -6 -20 -3 -24 7 -27 -10 -4 -19 27 -10 32 -7 36 25 3 20 -1 34
-12 42 -9 7 -20 18 -24 26 -7 10 -3 12 13 6 15 -5 29 0 46 17 35 33 31 54 -15
78 -34 17 -41 18 -46 6z"/>
<path d="M580 2212 c0 -5 9 -17 21 -28 24 -22 48 -60 30 -50 -6 4 -11 3 -11
-3 0 -14 38 -33 50 -26 13 8 13 65 0 65 -5 0 -10 -5 -10 -10 0 -6 -14 5 -31
25 -30 34 -49 44 -49 27z"/>
<path d="M2060 2190 c-21 -6 -22 -8 -8 -14 14 -7 14 -12 -8 -49 -27 -48 -29
-57 -11 -57 7 0 23 21 36 47 21 43 24 46 36 30 17 -23 28 -7 19 28 -6 26 -19
29 -64 15z"/>
<path d="M1912 2101 c2 -17 2 -30 -1 -29 -21 2 -31 -4 -31 -21 0 -26 24 -45
37 -29 17 21 24 56 13 63 -5 3 -10 13 -10 21 0 11 4 12 19 4 28 -14 36 -12 21
5 -7 8 -21 15 -32 15 -17 0 -19 -5 -16 -29z"/>
<path d="M507 2093 c-12 -12 -7 -27 19 -58 15 -16 23 -24 20 -17 -4 7 -1 12 8
12 8 0 21 10 27 22 10 18 8 24 -7 35 -19 14 -56 17 -67 6z m63 -28 c0 -8 -8
-15 -19 -15 -10 0 -24 7 -31 15 -11 13 -8 15 19 15 21 0 31 -5 31 -15z"/>
<path d="M1150 2091 c0 -5 9 -13 21 -16 13 -5 18 -12 14 -22 -6 -18 21 -53 42
-53 14 0 16 13 7 48 -4 14 -21 29 -41 37 -42 18 -43 18 -43 6z"/>
<path d="M2660 2061 c0 -5 6 -11 13 -14 7 -2 0 -14 -20 -31 -18 -15 -33 -32
-33 -37 0 -17 24 -9 53 19 20 18 31 23 34 14 7 -18 23 -4 23 19 0 12 -10 23
-26 29 -32 12 -44 13 -44 1z"/>
<path d="M573 2003 c-7 -3 -13 -13 -13 -24 0 -15 7 -19 33 -18 30 2 30 2 5 6
-31 5 -37 20 -10 25 9 2 13 6 7 9 -5 4 -16 4 -22 2z"/>
<path d="M1130 2000 c0 -6 11 -16 25 -22 15 -7 25 -19 25 -33 0 -24 18 -45 38
-45 11 0 13 8 9 30 -4 19 -2 30 5 30 18 0 6 7 -49 29 -29 11 -53 16 -53 11z"/>
<path d="M1860 1999 c0 -6 -7 -8 -16 -5 -12 5 -15 2 -10 -10 3 -8 6 -19 6 -23
0 -11 48 -12 55 -1 3 6 -3 10 -15 10 -13 0 -20 5 -17 13 2 6 12 11 22 9 10 -2
14 1 10 7 -8 14 -35 14 -35 0z"/>
<path d="M575 1930 c-11 -17 19 -51 40 -46 11 3 28 6 38 6 9 0 17 5 17 11 0 7
-9 9 -24 5 -18 -4 -25 -1 -29 14 -5 21 -31 27 -42 10z"/>
<path d="M1824 1916 c-7 -19 1 -46 15 -46 5 0 16 11 25 25 9 14 12 25 7 25 -5
0 -16 3 -25 6 -10 4 -18 0 -22 -10z"/>
<path d="M1177 1883 c-24 -23 16 -72 49 -59 17 6 19 42 2 52 -6 4 -8 3 -5 -2
3 -6 2 -16 -4 -24 -7 -13 -9 -12 -9 1 0 19 -24 42 -33 32z"/>
<path d="M1785 1870 c-10 -15 4 -47 23 -55 16 -6 48 23 36 34 -3 3 -9 -1 -14
-9 -7 -11 -11 -11 -24 -1 -12 11 -14 17 -5 27 8 10 8 14 1 14 -6 0 -14 -5 -17
-10z"/>
<path d="M616 1802 c-9 -14 24 -52 45 -52 25 0 35 25 19 45 -13 16 -55 20 -64
7z"/>
<path d="M1164 1796 c-3 -9 -13 -16 -22 -16 -23 0 -6 -12 44 -31 l45 -17 -3
36 c-3 32 -7 37 -31 40 -18 2 -29 -2 -33 -12z"/>
<path d="M2337 1803 c-16 -16 -5 -33 21 -33 26 -1 26 -1 7 -16 -20 -16 -20
-16 0 -12 29 5 34 48 5 48 -12 0 -18 5 -15 10 7 11 -8 14 -18 3z"/>
<path d="M1720 1782 c0 -10 18 -33 40 -51 22 -17 40 -28 40 -23 0 5 -7 15 -15
22 -8 7 -12 17 -8 23 3 5 1 7 -4 4 -6 -4 -18 2 -27 12 -17 18 -17 20 1 24 14
4 14 5 -4 6 -16 1 -23 -5 -23 -17z"/>
<path d="M2297 1744 c-5 -28 6 -54 24 -54 10 0 2 44 -11 69 -5 9 -9 4 -13 -15z"/>
<path d="M1181 1721 c-8 -5 -11 -16 -6 -30 4 -12 2 -21 -4 -21 -6 0 -11 -4
-11 -10 0 -14 42 -50 59 -50 11 0 6 9 -14 25 l-30 25 28 -6 c15 -3 27 -3 27 0
0 4 -12 18 -27 32 l-28 25 28 -5 c29 -7 38 8 11 18 -19 7 -16 8 -33 -3z"/>
<path d="M2243 1685 c-3 -10 -1 -26 5 -36 15 -24 5 -54 -14 -39 -7 7 -10 19
-7 27 4 11 2 14 -5 9 -7 -4 -12 -2 -12 3 0 6 -5 11 -10 11 -6 0 -1 -18 10 -40
23 -46 34 -49 51 -17 7 12 18 26 25 30 8 4 14 16 13 25 0 10 -3 12 -6 5 -7
-18 -20 -16 -27 3 -4 9 -2 13 5 8 7 -4 10 -1 7 6 -7 21 -27 24 -35 5z"/>
<path d="M1707 1673 c-4 -3 -7 -15 -7 -25 0 -15 5 -18 21 -13 16 5 19 4 14 -5
-5 -8 -3 -11 6 -8 23 8 16 33 -8 31 -16 -2 -21 2 -17 12 6 16 2 20 -9 8z"/>
<path d="M665 1661 c-9 -15 27 -61 43 -56 8 3 22 5 33 5 10 0 19 5 19 11 0 6
-8 9 -17 7 -10 -2 -22 5 -28 17 -12 22 -40 31 -50 16z"/>
<path d="M1676 1602 c-10 -17 2 -32 19 -25 10 3 15 -1 15 -12 0 -9 5 -13 10
-10 6 3 10 15 10 27 0 15 -5 19 -20 15 -10 -3 -21 0 -23 6 -2 8 -6 7 -11 -1z"/>
<path d="M699 1588 c-4 -6 -6 -78 -3 -78 12 0 44 37 44 51 0 17 -35 39 -41 27z"/>
<path d="M1137 1583 c-25 -24 26 -83 71 -83 37 0 46 21 27 63 l-15 32 4 -37
c4 -31 2 -38 -13 -38 -10 0 -22 13 -30 35 -11 33 -29 44 -44 28z"/>
<path d="M2167 1573 c-14 -13 -6 -33 13 -33 22 0 27 -15 8 -24 -7 -3 -4 -5 7
-3 26 3 32 35 8 44 -10 4 -21 10 -24 15 -3 5 -8 5 -12 1z"/>
<path d="M1654 1536 c-8 -22 -1 -49 14 -54 7 -2 16 5 19 17 3 12 10 21 16 21
12 0 -23 29 -36 30 -4 0 -10 -6 -13 -14z"/>
<path d="M2152 1500 c15 -24 4 -37 -17 -20 -8 7 -15 8 -15 3 0 -13 22 -33 36
-33 18 0 28 39 14 55 -18 22 -32 18 -18 -5z"/>
<path d="M732 1499 c-12 -5 -22 -14 -22 -20 0 -8 4 -8 15 1 8 6 18 10 22 7 4
-2 17 -1 27 3 20 7 20 7 0 12 -11 3 -30 1 -42 -3z"/>
<path d="M1622 1451 c13 -17 29 -30 37 -30 9 -1 4 10 -14 29 -37 39 -54 39
-23 1z"/>
<path d="M2080 1477 c0 -5 8 -22 17 -38 17 -29 33 -38 33 -20 0 12 -49 69 -50
58z"/>
<path d="M729 1458 c-4 -9 -6 -78 -2 -78 3 0 11 6 19 14 7 8 19 16 26 19 10 3
10 9 2 23 -10 16 -41 32 -45 22z"/>
<path d="M2056 1423 c-12 -12 -6 -61 9 -73 20 -16 45 3 45 34 -1 21 -1 21 -13
-2 -10 -17 -15 -20 -25 -10 -15 15 -15 35 0 40 8 3 9 6 1 11 -5 4 -13 4 -17 0z"/>
<path d="M1580 1386 c0 -27 26 -59 44 -53 6 2 12 17 13 33 3 28 2 28 -7 5 -8
-19 -13 -21 -25 -11 -18 15 -19 37 -2 43 7 3 5 6 -5 6 -13 1 -18 -7 -18 -23z"/>
<path d="M383 575 c2 -13 9 -19 21 -17 14 3 17 -1 13 -12 -4 -9 -2 -16 3 -16
6 0 10 9 10 20 0 13 -7 20 -19 20 -11 0 -22 6 -25 13 -3 6 -4 3 -3 -8z"/>
<path d="M1020 535 c0 -31 55 -105 78 -105 10 0 7 7 -9 23 -14 12 -31 37 -38
55 -7 17 -17 32 -22 32 -5 0 -9 -2 -9 -5z"/>
<path d="M375 520 c-10 -16 6 -32 27 -27 16 5 19 2 15 -14 -4 -17 -3 -18 9 -8
20 16 17 36 -5 49 -25 13 -38 13 -46 0z"/>
<path d="M360 456 c0 -8 5 -18 11 -22 8 -5 8 -9 -1 -14 -8 -5 -8 -9 3 -13 9
-3 18 1 21 9 3 8 -1 17 -9 20 -8 4 -15 11 -15 16 0 6 7 8 15 4 8 -3 15 -1 15
4 0 6 -9 10 -20 10 -11 0 -20 -6 -20 -14z"/>
<path d="M1266 373 c-8 -16 -26 -40 -40 -55 l-26 -27 21 -12 c12 -6 37 -9 55
-7 28 3 34 1 34 -14 0 -13 8 -18 29 -18 17 0 33 -4 36 -10 3 -5 11 -10 16 -10
6 0 8 4 5 9 -4 5 -1 22 4 37 13 34 -1 47 -47 40 -24 -3 -33 -1 -33 9 0 8 -10
21 -22 29 -17 12 -20 18 -10 28 14 14 16 28 2 28 -5 0 -16 -12 -24 -27z m34
-48 c17 -21 3 -35 -36 -35 l-35 0 18 25 c21 28 35 31 53 10z m85 -34 c7 -12
-22 -41 -40 -41 -24 0 -26 18 -3 34 26 18 35 20 43 7z"/>
<path d="M330 383 c0 -15 33 -34 48 -27 16 7 16 7 0 11 -10 3 -18 8 -18 12 0
4 -7 8 -15 8 -8 0 -15 -2 -15 -4z"/>
<path d="M325 320 c-18 -6 -17 -9 13 -24 29 -15 33 -15 38 -1 4 9 4 19 0 22
-3 4 -6 1 -6 -5 0 -17 -18 -15 -22 2 -2 9 -10 11 -23 6z"/>
<path d="M2058 307 c-16 -6 -28 -14 -28 -19 0 -15 38 -8 61 12 27 22 12 25
-33 7z"/>
<path d="M1436 261 c-14 -26 -14 -30 -1 -41 12 -10 24 -10 48 -2 l32 10 -32 1
c-21 1 -33 6 -33 15 0 20 25 37 44 30 9 -3 16 -1 16 5 0 6 -13 11 -30 11 -22
0 -33 -7 -44 -29z"/>
<path d="M1742 283 c-26 -10 -77 -143 -55 -143 5 0 17 16 26 36 10 19 22 32
27 29 5 -3 19 -1 30 5 16 9 20 8 20 -5 0 -18 66 -21 90 -4 11 8 8 9 -15 5 -43
-8 -61 5 -44 32 14 23 39 37 39 23 0 -5 -7 -12 -16 -15 -9 -4 -14 -9 -11 -12
9 -10 47 16 47 32 0 22 -27 28 -53 11 -19 -12 -24 -12 -35 -1 -13 14 -27 16
-50 7z m42 -22 c3 -4 -4 -17 -15 -27 -17 -15 -22 -16 -29 -4 -5 9 -5 19 2 27
12 15 34 17 42 4z"/>
<path d="M1568 268 c-19 -16 -78 -98 -78 -110 0 -19 26 -6 41 21 14 24 22 28
44 23 20 -3 32 0 42 13 17 24 16 30 -3 49 -19 19 -25 20 -46 4z m32 -28 c0
-13 -7 -20 -20 -20 -23 0 -26 10 -8 28 18 18 28 15 28 -8z"/>
<path d="M324 256 c-4 -11 -2 -21 7 -27 24 -15 39 -10 38 14 0 12 -3 16 -6 9
-4 -10 -8 -8 -18 5 -13 17 -14 17 -21 -1z"/>
<path d="M1646 228 c-18 -26 -12 -38 17 -37 18 1 19 2 4 6 -17 4 -17 6 -2 29
19 30 2 32 -19 2z"/>
<path d="M300 197 c0 -21 12 -28 27 -16 10 9 13 8 13 -5 0 -9 5 -16 10 -16 15
0 12 37 -4 43 -7 3 -19 0 -26 -6 -10 -9 -11 -9 -6 1 4 6 2 12 -3 12 -6 0 -11
-6 -11 -13z"/>
</g>
</svg>
